<?xml version="1.0" standalone="no"?>
<!DOCTYPE svg PUBLIC "-//W3C//DTD SVG 20010904//EN"
 "http://www.w3.org/TR/2001/REC-SVG-20010904/DTD/svg10.dtd">
<svg version="1.0" xmlns="http://www.w3.org/2000/svg"
 width="200.000000pt" height="300.000000pt" viewBox="0 0 200.000000 300.000000"
 preserveAspectRatio="xMidYMid meet">
<metadata>
Created by potrace 1.16, written by Peter Selinger 2001-2019
</metadata>
<g transform="translate(0.000000,300.000000) scale(0.100000,-0.100000)"
fill="#000000" stroke="none">
<path d="M975 2750 c-63 -7 -157 -47 -188 -81 -22 -24 -37 -24 -37 -1 -1 15
-2 14 -12 -3 -17 -31 -32 -36 -45 -18 -11 15 -13 13 -13 -15 0 -21 -5 -32 -14
-32 -8 0 -17 -8 -21 -17 -6 -17 -7 -17 -21 1 -14 19 -14 19 -14 -3 0 -13 -5
-21 -12 -19 -16 6 -51 -24 -38 -32 6 -3 -9 -26 -33 -51 -74 -77 -94 -189 -73
-420 5 -56 11 -69 32 -69 22 0 40 -21 46 -52 4 -21 -1 -31 -22 -47 -24 -17
-27 -25 -21 -53 5 -24 13 -34 29 -36 12 -2 33 -17 47 -33 l25 -31 1 34 c1 18
1 38 0 45 -1 6 3 14 9 18 5 3 10 1 10 -4 0 -6 5 -11 11 -11 8 0 7 5 -1 15 -10
12 -10 22 -2 39 6 14 7 28 1 37 -5 8 -9 28 -9 44 0 21 3 26 9 16 6 -9 11 -10
15 -2 10 15 51 14 63 -1 6 -7 15 -26 21 -43 10 -29 10 -28 9 14 -1 27 3 46 11
49 7 2 10 7 7 12 -13 22 32 35 119 35 140 0 174 -27 147 -115 -6 -20 -20 -46
-31 -58 -11 -12 -17 -22 -12 -22 15 0 59 54 69 85 14 44 42 39 62 -12 20 -52
47 -82 38 -43 -19 80 -19 105 0 122 10 10 37 22 59 27 30 8 17 8 -56 4 -74 -4
-108 -1 -155 12 -37 11 -96 18 -152 19 l-92 1 42 22 c46 24 85 28 136 13 39
-11 49 -7 32 13 -6 8 -32 17 -57 21 -40 5 -56 1 -110 -25 -35 -18 -64 -36 -64
-40 0 -5 -9 -9 -19 -9 -11 0 -22 -4 -26 -10 -3 -5 -12 -7 -20 -4 -8 4 -12 10
-9 15 3 5 0 9 -5 9 -6 0 -11 -13 -11 -30 0 -16 -5 -30 -10 -30 -6 0 -8 12 -4
28 6 28 11 41 38 103 8 19 18 54 22 77 4 23 11 42 16 42 6 0 8 7 5 15 -7 16
91 108 105 99 4 -3 8 -1 8 4 0 15 44 20 71 8 37 -15 120 -14 114 2 -5 15 44
-18 65 -43 7 -8 19 -15 27 -15 12 0 12 3 -1 22 -9 12 -16 26 -16 30 0 18 44 6
87 -23 41 -28 44 -29 38 -10 -9 31 13 27 60 -11 22 -17 34 -25 28 -18 -7 8
-13 19 -13 24 0 6 25 -15 55 -47 51 -53 55 -61 60 -114 2 -32 9 -74 15 -93 18
-61 15 -70 -22 -59 -18 5 -51 9 -73 8 l-40 -1 40 -9 c77 -18 92 -28 98 -66 4
-20 2 -44 -3 -54 -16 -28 -11 -37 5 -9 l14 25 2 -30 c1 -16 1 -33 0 -37 0 -5
4 -8 10 -8 7 0 9 10 4 27 -5 23 -4 25 8 14 22 -18 33 6 13 28 -17 19 -16 43
10 136 20 75 27 116 28 163 0 23 5 42 9 42 5 0 7 6 4 14 -3 8 -1 16 5 18 8 3
7 10 -1 26 -9 16 -9 22 0 22 7 0 5 9 -5 25 -9 14 -16 31 -14 38 3 17 -31 79
-56 100 -16 14 -17 18 -4 13 10 -3 20 -1 23 4 11 18 -202 210 -233 210 -7 0
-25 6 -40 14 -35 17 -130 25 -207 16z"/>
<path d="M628 1410 c-2 -73 1 -107 10 -116 6 -7 12 -19 12 -26 0 -7 -9 -2 -20
12 -11 14 -19 21 -18 15 3 -10 -13 -29 -73 -90 -26 -27 -27 -31 -10 -31 11 0
17 4 15 8 -3 4 5 12 16 18 16 9 20 8 20 -6 0 -11 5 -14 17 -10 11 5 23 -1 35
-16 l18 -23 -10 33 c-5 20 -5 32 1 32 6 0 7 6 1 17 -7 12 -4 21 11 33 15 12
18 22 12 36 -4 10 -7 23 -6 27 1 5 -3 6 -9 2 -19 -12 -10 12 12 31 21 18 21
18 15 0 -6 -14 -4 -17 8 -12 9 3 13 2 10 -4 -3 -5 14 -29 38 -53 23 -24 41
-49 39 -56 -2 -6 3 -12 12 -12 9 -1 28 -3 44 -4 15 -1 57 -10 95 -20 62 -16
99 -15 69 4 -7 4 18 22 68 46 44 21 80 41 80 45 0 3 -28 3 -61 2 -77 -5 -152
6 -143 20 4 6 -1 8 -16 3 -15 -5 -20 -4 -16 4 4 6 0 11 -9 11 -8 0 -18 7 -21
15 -4 8 -10 15 -15 15 -8 0 -31 20 -111 98 -27 26 -49 44 -49 39 -1 -4 -3 -11
-4 -17 -1 -5 -3 -14 -4 -20 -2 -20 -22 -9 -40 22 l-20 31 -3 -103z"/>
</g>
</svg>
